numbers.ufo
<glyph name="__combstroke0" format="2">
  <advance width="0"/>
  <anchor x="0" y="14.4004" name="_stroke0"/>
  <outline>
    <contour>
      <point x="0" y="75.6982" type="curve"/>
      <point x="31.053741" y="75.6982"/>
      <point x="47.6982" y="43.424133"/>
      <point x="47.6982" y="16" type="curve"/>
      <point x="47.6982" y="-11.424139"/>
      <point x="31.05375" y="-43.6982"/>
      <point x="0" y="-43.6982" type="curve"/>
      <point x="-31.05375" y="-43.6982"/>
      <point x="-47.6982" y="-11.424139"/>
      <point x="-47.6982" y="16" type="curve"/>
      <point x="-47.6982" y="43.424133"/>
      <point x="-31.053741" y="75.6982"/>
    </contour>
    <contour>
      <point x="0" y="1.2988005" type="curve"/>
      <point x="1.2986943" y="1.2988005"/>
      <point x="2.7012005" y="3.4510982"/>
      <point x="2.7012005" y="16" type="curve"/>
      <point x="2.7012005" y="28.549034"/>
      <point x="1.2986923" y="30.701199"/>
      <point x="0" y="30.701199" type="curve"/>
      <point x="-1.2986943" y="30.701199"/>
      <point x="-2.7012005" y="28.5489"/>
      <point x="-2.7012005" y="16" type="curve"/>
      <point x="-2.7012005" y="3.4509614"/>
      <point x="-1.2986925" y="1.2988005"/>
    </contour>
  </outline>
</glyph>
<glyph name="__combstroke0" format="2">
  <advance width="0"/>
  <anchor x="0" y="14.4004" name="_stroke0"/>
  <outline>
    <contour>
      <point x="17.7012" y="16" type="curve" smooth="yes"/>
      <point x="17.7012" y="32.543"/>
      <point x="9.11133" y="45.7012"/>
      <point x="0" y="45.7012" type="curve" smooth="yes"/>
      <point x="-9.1123" y="45.7012"/>
      <point x="-17.7012" y="32.542"/>
      <point x="-17.7012" y="16" type="curve" smooth="yes"/>
      <point x="-17.7012" y="-0.542969"/>
      <point x="-9.11133" y="-13.7012"/>
      <point x="0" y="-13.7012" type="curve" smooth="yes"/>
      <point x="9.1123" y="-13.7012"/>
      <point x="17.7012" y="-0.541992"/>
    </contour>
    <contour>
      <point x="32.6982" y="16" type="curve" smooth="yes"/>
      <point x="32.6982" y="-8.81152"/>
      <point x="18.2725" y="-28.6982"/>
      <point x="0" y="-28.6982" type="curve" smooth="yes"/>
      <point x="-18.2725" y="-28.6982"/>
      <point x="-32.6982" y="-8.81152"/>
      <point x="-32.6982" y="16" type="curve" smooth="yes"/>
      <point x="-32.6982" y="40.8115"/>
      <point x="-18.2725" y="60.6982"/>
      <point x="0" y="60.6982" type="curve" smooth="yes"/>
      <point x="18.2725" y="60.6982"/>
      <point x="32.6982" y="40.8115"/>
    </contour>
  </outline>
</glyph>
<glyph name="__combstroke1" format="2">
  <advance width="0"/>
  <anchor x="0" y="0" name="_stroke1"/>
  <outline>
    <contour>
      <point x="0.0000000000000053928292" y="-60.0986" type="curve"/>
      <point x="12.368759" y="-60.0986"/>
      <point x="22.49805" y="-49.968052"/>
      <point x="22.49805" y="-37.5996" type="curve"/>
      <point x="22.49805" y="37.5996" type="curve"/>
      <point x="22.49805" y="49.968052"/>
      <point x="12.368759" y="60.0986"/>
      <point x="-0.0000000000000053928292" y="60.0986" type="curve"/>
      <point x="-12.368759" y="60.0986"/>
      <point x="-22.49805" y="49.968052"/>
      <point x="-22.49805" y="37.5996" type="curve"/>
      <point x="-22.49805" y="-37.5996" type="curve"/>
      <point x="-22.49805" y="-49.968052"/>
      <point x="-12.368759" y="-60.0986"/>
    </contour>
  </outline>
</glyph>
<glyph name="__combstroke1" format="2">
  <advance width="0"/>
  <anchor x="0" y="0" name="_stroke1"/>
  <outline>
    <contour>
      <point x="0" y="-45.0986" type="curve" smooth="yes"/>
      <point x="-4.14355" y="-45.0986"/>
      <point x="-7.49805" y="-41.7441"/>
      <point x="-7.49805" y="-37.5996" type="curve" smooth="yes"/>
      <point x="-7.49805" y="37.5996" type="line" smooth="yes"/>
      <point x="-7.49805" y="41.7441"/>
      <point x="-4.14355" y="45.0986"/>
      <point x="0" y="45.0986" type="curve" smooth="yes"/>
      <point x="4.14355" y="45.0986"/>
      <point x="7.49805" y="41.7441"/>
      <point x="7.49805" y="37.5996" type="curve" smooth="yes"/>
      <point x="7.49805" y="-37.5996" type="line" smooth="yes"/>
      <point x="7.49805" y="-41.7441"/>
      <point x="4.14355" y="-45.0986"/>
    </contour>
  </outline>
</glyph>
<glyph name="__combstroke2" format="2">
  <advance width="0"/>
  <anchor x="0" y="0.0234375" name="_stroke2"/>
  <outline>
    <contour>
      <point x="-20.224154" y="0.14286245" type="line"/>
      <point x="-31.129478" y="1.6767757"/>
      <point x="-39.598602" y="11.113744"/>
      <point x="-39.598602" y="22.4229" type="curve"/>
      <point x="-39.5986" y="32.77853"/>
      <point x="-33.08907" y="43.631298"/>
      <point x="-25.28909" y="50.003826" type="curve"/>
      <point x="-18.26883" y="55.73984"/>
      <point x="-9.38549" y="58.9268"/>
      <point x="-0.316406" y="58.9268" type="curve"/>
      <point x="21.093008" y="58.9268"/>
      <point x="38.3115" y="41.54384"/>
      <point x="38.3115" y="20.1738" type="curve"/>
      <point x="38.3115" y="15.324535"/>
      <point x="37.43604" y="10.49162"/>
      <point x="35.819572" y="5.92323" type="curve"/>
      <point x="33.990173" y="0.75482714"/>
      <point x="31.240927" y="-3.8401933"/>
      <point x="28.212801" y="-8.372759" type="curve"/>
      <point x="23.907833" y="-14.814168" type="line"/>
      <point x="33.185333" y="-17.593004"/>
      <point x="39.998" y="-26.234772"/>
      <point x="39.998" y="-36.377" type="curve"/>
      <point x="39.997997" y="-48.74515"/>
      <point x="29.868155" y="-58.875"/>
      <point x="17.5" y="-58.875" type="curve"/>
      <point x="17.45734" y="-58.87494" type="line"/>
      <point x="-17.56416" y="-58.775337" type="line"/>
      <point x="-29.90753" y="-58.74041"/>
      <point x="-39.997997" y="-48.619606"/>
      <point x="-39.998" y="-36.2764" type="curve"/>
      <point x="-39.998" y="-31.843973"/>
      <point x="-38.675682" y="-27.467415"/>
      <point x="-36.213154" y="-23.781107" type="curve"/>
    </contour>
  </outline>
</glyph>
<glyph name="__combstroke2" format="2">
  <advance width="0"/>
  <anchor x="0" y="0.0234375" name="_stroke2"/>
  <outline>
    <contour>
      <point x="3.25977" y="8.28613" type="line" smooth="yes"/>
      <point x="6.42969" y="13.0293"/>
      <point x="8.30566" y="16.3086"/>
      <point x="8.30566" y="20.2012" type="curve" smooth="yes"/>
      <point x="8.30566" y="25.5703"/>
      <point x="4.08887" y="28.9297"/>
      <point x="-0.289062" y="28.9297" type="curve" smooth="yes"/>
      <point x="-4.79883" y="28.9297"/>
      <point x="-8.86035" y="25.5967"/>
      <point x="-9.73438" y="21.0107" type="curve" smooth="yes"/>
      <point x="-10.4023" y="17.5059"/>
      <point x="-13.4727" y="14.9248"/>
      <point x="-17.0996" y="14.9248" type="curve" smooth="yes"/>
      <point x="-21.2441" y="14.9248"/>
      <point x="-24.5986" y="18.2793"/>
      <point x="-24.5986" y="22.4229" type="curve" smooth="yes"/>
      <point x="-24.5986" y="24.4268"/>
      <point x="-23.0078" y="32.498"/>
      <point x="-15.7988" y="38.3877" type="curve" smooth="yes"/>
      <point x="-11.459" y="41.9336"/>
      <point x="-5.99512" y="43.9268"/>
      <point x="-0.316406" y="43.9268" type="curve" smooth="yes"/>
      <point x="12.6826" y="43.9268"/>
      <point x="23.3115" y="33.6113"/>
      <point x="23.3115" y="20.1738" type="curve" smooth="yes"/>
      <point x="23.3115" y="16.9395"/>
      <point x="22.6963" y="13.8027"/>
      <point x="21.6787" y="10.9268" type="curve" smooth="yes"/>
      <point x="20.1035" y="6.47656"/>
      <point x="17.7451" y="2.96094"/>
      <point x="15.7402" y="-0.0400391" type="curve" smooth="yes"/>
      <point x="-3.49316" y="-28.8184" type="line"/>
      <point x="17.5215" y="-28.8779" type="line" smooth="yes"/>
      <point x="21.6562" y="-28.8896"/>
      <point x="24.998" y="-32.2412"/>
      <point x="24.998" y="-36.377" type="curve" smooth="yes"/>
      <point x="24.998" y="-40.5205"/>
      <point x="21.6436" y="-43.875"/>
      <point x="17.5" y="-43.875" type="curve" smooth="yes"/>
      <point x="-17.5215" y="-43.7754" type="line" smooth="yes"/>
      <point x="-21.6562" y="-43.7637"/>
      <point x="-24.998" y="-40.4121"/>
      <point x="-24.998" y="-36.2764" type="curve" smooth="yes"/>
      <point x="-24.998" y="-34.8232"/>
      <point x="-24.5791" y="-33.3691"/>
      <point x="-23.7402" y="-32.1133" type="curve" smooth="yes"/>
    </contour>
  </outline>
</glyph>
<glyph name="__combstroke3" format="2">
  <advance width="0"/>
  <anchor x="-26.9912" y="11.9785" name="_stroke3"/>
  <outline>
    <contour>
      <point x="-72.3145" y="-7.62207" type="curve"/>
      <point x="-72.3145" y="1.6996064"/>
      <point x="-66.56051" y="9.749916"/>
      <point x="-58.43093" y="13.150576" type="curve"/>
      <point x="-65.704895" y="16.89019"/>
      <point x="-70.7139" y="24.480543"/>
      <point x="-70.7139" y="33.1777" type="curve"/>
      <point x="-70.7139" y="33.212444"/>
      <point x="-70.66476" y="33.81781"/>
      <point x="-70.614174" y="34.42305" type="curve"/>
      <point x="-70.56358" y="35.028294"/>
      <point x="-70.51156" y="35.633415"/>
      <point x="-70.50579" y="35.66768" type="curve"/>
      <point x="-68.67514" y="46.542786"/>
      <point x="-65.35796" y="54.16891"/>
      <point x="-56.87221" y="61.765656" type="curve"/>
      <point x="-49.207653" y="68.62655"/>
      <point x="-39.162457" y="72.484406"/>
      <point x="-28.8691" y="72.484406" type="curve"/>
      <point x="-6.417304" y="72.4844"/>
      <point x="12.33496" y="54.31286"/>
      <point x="12.33496" y="31.7227" type="curve"/>
      <point x="12.33496" y="25.422518"/>
      <point x="10.828042" y="19.238201"/>
      <point x="8.030664" y="13.68534" type="curve"/>
      <point x="10.616957" y="8.325235"/>
      <point x="11.98828" y="2.3930202"/>
      <point x="11.98828" y="-3.66211" type="curve"/>
      <point x="11.98828" y="-26.904518"/>
      <point x="-7.506874" y="-45.8662"/>
      <point x="-30.6221" y="-45.8662" type="curve"/>
      <point x="-50.624355" y="-45.8662"/>
      <point x="-68.060844" y="-31.591578"/>
      <point x="-71.89692" y="-11.940278" type="curve"/>
      <point x="-72.17466" y="-10.513999"/>
      <point x="-72.3145" y="-9.068183"/>
    </contour>
  </outline>
</glyph>
<glyph name="__combstroke3" format="2">
  <advance width="0"/>
  <anchor x="-26.9912" y="11.9785" name="_stroke3"/>
  <outline>
    <contour>
      <point x="-34.792" y="21.8135" type="curve" smooth="yes"/>
      <point x="-33.8311" y="21.9385"/>
      <point x="-32.9443" y="21.9824"/>
      <point x="-32.1367" y="21.9824" type="curve" smooth="yes"/>
      <point x="-30.2275" y="21.9824"/>
      <point x="-28.6709" y="21.7354"/>
      <point x="-27.6523" y="21.7354" type="curve" smooth="yes"/>
      <point x="-26.7881" y="21.7354"/>
      <point x="-23.3096" y="21.9111"/>
      <point x="-20.6221" y="24.5986" type="curve" smooth="yes"/>
      <point x="-20.124" y="25.0957"/>
      <point x="-17.666" y="27.75"/>
      <point x="-17.666" y="31.6309" type="curve" smooth="yes"/>
      <point x="-17.666" y="34.2969"/>
      <point x="-18.8301" y="37.2256"/>
      <point x="-20.79" y="39.1865" type="curve" smooth="yes"/>
      <point x="-22.8203" y="41.2168"/>
      <point x="-25.9473" y="42.4873"/>
      <point x="-28.9072" y="42.4873" type="curve" smooth="yes"/>
      <point x="-30.5537" y="42.4873"/>
      <point x="-34.3271" y="41.9736"/>
      <point x="-37.3311" y="38.9707" type="curve" smooth="yes"/>
      <point x="-39.1436" y="37.1572"/>
      <point x="-40.4277" y="34.6094"/>
      <point x="-40.7959" y="32.0859" type="curve" smooth="yes"/>
      <point x="-41.332" y="28.4248"/>
      <point x="-44.4746" y="25.6797"/>
      <point x="-48.2158" y="25.6797" type="curve" smooth="yes"/>
      <point x="-52.3594" y="25.6797"/>
      <point x="-55.7139" y="29.0342"/>
      <point x="-55.7139" y="33.1777" type="curve" smooth="yes"/>
      <point x="-55.7139" y="33.373"/>
      <point x="-55.3223" y="43.0205"/>
      <point x="-46.8672" y="50.5898" type="curve" smooth="yes"/>
      <point x="-44.0547" y="53.1074"/>
      <point x="-37.8711" y="57.4844"/>
      <point x="-28.8691" y="57.4844" type="curve" smooth="yes"/>
      <point x="-14.3135" y="57.4844"/>
      <point x="-2.66504" y="45.8516"/>
      <point x="-2.66504" y="31.7227" type="curve" smooth="yes"/>
      <point x="-2.66504" y="28.1396"/>
      <point x="-3.52539" y="20.3428"/>
      <point x="-10.2012" y="13.8076" type="curve"/>
      <point x="-7.49316" y="11.1162"/>
      <point x="-3.01172" y="5.30664"/>
      <point x="-3.01172" y="-3.66211" type="curve" smooth="yes"/>
      <point x="-3.01172" y="-18.3418"/>
      <point x="-15.3213" y="-30.8662"/>
      <point x="-30.6221" y="-30.8662" type="curve" smooth="yes"/>
      <point x="-43.5303" y="-30.8662"/>
      <point x="-54.6943" y="-21.7734"/>
      <point x="-57.1748" y="-9.06641" type="curve" smooth="yes"/>
      <point x="-57.2676" y="-8.58984"/>
      <point x="-57.3145" y="-8.10547"/>
      <point x="-57.3145" y="-7.62207" type="curve" smooth="yes"/>
      <point x="-57.3145" y="-3.47754"/>
      <point x="-53.959" y="-0.123047"/>
      <point x="-49.8154" y="-0.123047" type="curve" smooth="yes"/>
      <point x="-46.2002" y="-0.123047"/>
      <point x="-43.1377" y="-2.68848"/>
      <point x="-42.4561" y="-6.17676" type="curve" smooth="yes"/>
      <point x="-41.3525" y="-11.832"/>
      <point x="-36.292" y="-15.8623"/>
      <point x="-30.7148" y="-15.8623" type="curve" smooth="yes"/>
      <point x="-28.0996" y="-15.8623"/>
      <point x="-24.4756" y="-14.9619"/>
      <point x="-21.6768" y="-12.1641" type="curve" smooth="yes"/>
      <point x="-20.8271" y="-11.3135"/>
      <point x="-18.0107" y="-8.16016"/>
      <point x="-18.0107" y="-3.68652" type="curve" smooth="yes"/>
      <point x="-18.0107" y="-1.70312"/>
      <point x="-18.6572" y="3.99805"/>
      <point x="-25.8574" y="5.92773" type="curve" smooth="yes"/>
      <point x="-27.9971" y="6.50098"/>
      <point x="-30.4766" y="6.65625"/>
      <point x="-34.2871" y="6.89453" type="curve" smooth="yes"/>
      <point x="-38.2324" y="7.14062"/>
      <point x="-41.3145" y="10.4111"/>
      <point x="-41.3145" y="14.3779" type="curve" smooth="yes"/>
      <point x="-41.3145" y="18.1611"/>
      <point x="-38.5088" y="21.3281"/>
    </contour>
  </outline>
</glyph>
<glyph name="__combstroke4" format="2">
  <advance width="0"/>
  <anchor x="0" y="9" name="_stroke4"/>
  <outline>
    <contour>
      <point x="-8.498051" y="-13.89844" type="curve"/>
      <point x="-8.498051" y="-13.89844"/>
      <point x="-8.498051" y="-28.2002"/>
      <point x="-8.498051" y="-28.2002" type="curve"/>
      <point x="-8.49805" y="-40.568386"/>
      <point x="1.6318316" y="-50.6982"/>
      <point x="14" y="-50.6982" type="curve"/>
      <point x="26.368198" y="-50.6982"/>
      <point x="36.497997" y="-40.568398"/>
      <point x="36.498" y="-28.2002" type="curve"/>
      <point x="36.498" y="-28.2002"/>
      <point x="36.498" y="-9.803456"/>
      <point x="36.498" y="-9.803456" type="curve"/>
      <point x="42.292553" y="-5.7217326"/>
      <point x="46.098602" y="1.0182521"/>
      <point x="46.098602" y="8.59961" type="curve"/>
      <point x="46.098602" y="16.181257"/>
      <point x="42.292664" y="22.921644"/>
      <point x="36.498" y="27.003565" type="curve"/>
      <point x="36.498" y="27.003565"/>
      <point x="36.498" y="48.2002"/>
      <point x="36.498" y="48.2002" type="curve"/>
      <point x="36.497997" y="60.568398"/>
      <point x="26.368198" y="70.6982"/>
      <point x="14" y="70.6982" type="curve"/>
      <point x="5.725" y="70.6982"/>
      <point x="-1.5480614" y="66.16373"/>
      <point x="-5.4557014" y="59.45822" type="curve"/>
      <point x="-9.560203" y="65.049576"/>
      <point x="-16.1768" y="68.6982"/>
      <point x="-23.5996" y="68.6982" type="curve"/>
      <point x="-35.968063" y="68.6982"/>
      <point x="-46.0986" y="58.56899"/>
      <point x="-46.098602" y="46.2002" type="curve"/>
      <point x="-46.098602" y="46.2002"/>
      <point x="-46.098602" y="8.59961"/>
      <point x="-46.098602" y="8.59961" type="curve"/>
      <point x="-46.0986" y="-3.7691562"/>
      <point x="-35.968056" y="-13.89844"/>
      <point x="-23.5996" y="-13.89844" type="curve"/>
      <point x="-23.5996" y="-13.89844"/>
      <point x="-8.498051" y="-13.89844"/>
    </contour>
  </outline>
</glyph>
<glyph name="__combstroke4" format="2">
  <advance width="0"/>
  <anchor x="0" y="9" name="_stroke4"/>
  <outline>
    <contour>
      <point x="-23.5996" y="1.10156" type="line" smooth="yes"/>
      <point x="-27.7441" y="1.10156"/>
      <point x="-31.0986" y="4.45605"/>
      <point x="-31.0986" y="8.59961" type="curve" smooth="yes"/>
      <point x="-31.0986" y="46.2002" type="line" smooth="yes"/>
      <point x="-31.0986" y="50.3438"/>
      <point x="-27.7441" y="53.6982"/>
      <point x="-23.5996" y="53.6982" type="curve" smooth="yes"/>
      <point x="-19.4561" y="53.6982"/>
      <point x="-16.1016" y="50.3438"/>
      <point x="-16.1016" y="46.2002" type="curve" smooth="yes"/>
      <point x="-16.1016" y="16.0986" type="line"/>
      <point x="6.50195" y="16.0986" type="line"/>
      <point x="6.50195" y="48.2002" type="line" smooth="yes"/>
      <point x="6.50195" y="52.3438"/>
      <point x="9.85645" y="55.6982"/>
      <point x="14" y="55.6982" type="curve" smooth="yes"/>
      <point x="18.1436" y="55.6982"/>
      <point x="21.498" y="52.3438"/>
      <point x="21.498" y="48.2002" type="curve" smooth="yes"/>
      <point x="21.498" y="16.0986" type="line"/>
      <point x="23.5996" y="16.0986" type="line" smooth="yes"/>
      <point x="27.7441" y="16.0986"/>
      <point x="31.0986" y="12.7441"/>
      <point x="31.0986" y="8.59961" type="curve" smooth="yes"/>
      <point x="31.0986" y="4.45605"/>
      <point x="27.7441" y="1.10156"/>
      <point x="23.5996" y="1.10156" type="curve" smooth="yes"/>
      <point x="21.498" y="1.10156" type="line"/>
      <point x="21.498" y="-28.2002" type="line" smooth="yes"/>
      <point x="21.498" y="-32.3438"/>
      <point x="18.1436" y="-35.6982"/>
      <point x="14" y="-35.6982" type="curve" smooth="yes"/>
      <point x="9.85645" y="-35.6982"/>
      <point x="6.50195" y="-32.3438"/>
      <point x="6.50195" y="-28.2002" type="curve" smooth="yes"/>
      <point x="6.50195" y="1.10156" type="line"/>
    </contour>
  </outline>
</glyph>
<glyph name="__combstroke5" format="2">
  <advance width="0"/>
  <anchor x="0.00292969" y="6.28418" name="_stroke5"/>
  <outline>
    <contour>
      <point x="-42.5117" y="-18.8164" type="curve"/>
      <point x="-42.5117" y="-14.368807"/>
      <point x="-41.201763" y="-10.2104845"/>
      <point x="-38.948853" y="-6.7085342" type="curve"/>
      <point x="-41.07959" y="-3.2734911"/>
      <point x="-42.3125" y="0.769043"/>
      <point x="-42.3125" y="5.08398" type="curve"/>
      <point x="-42.3125" y="43.8838" type="curve"/>
      <point x="-42.3125" y="56.252106"/>
      <point x="-32.18147" y="66.381805"/>
      <point x="-19.8135" y="66.381805" type="curve"/>
      <point x="18.1865" y="66.381805" type="curve"/>
      <point x="30.55464" y="66.381805"/>
      <point x="40.6846" y="56.251972"/>
      <point x="40.6846" y="43.8838" type="curve"/>
      <point x="40.6846" y="35.262627"/>
      <point x="35.76278" y="27.72844"/>
      <point x="28.591696" y="23.954721" type="curve"/>
      <point x="37.152336" y="15.822728"/>
      <point x="42.5186" y="4.360239"/>
      <point x="42.5186" y="-8.29883" type="curve"/>
      <point x="42.5186" y="-32.450897"/>
      <point x="22.808699" y="-52.418"/>
      <point x="-1.4043" y="-52.418" type="curve"/>
      <point x="-25.6173" y="-52.417995"/>
      <point x="-42.5117" y="-32.44"/>
    </contour>
  </outline>
</glyph>
<glyph name="__combstroke5" format="2">
  <advance width="0"/>
  <anchor x="0.00292969" y="6.28418" name="_stroke5"/>
  <outline>
    <contour>
      <point x="-2.16016" y="21.2861" type="curve" smooth="yes"/>
      <point x="14.3027" y="21.2861"/>
      <point x="27.5186" y="7.94824"/>
      <point x="27.5186" y="-8.29883" type="curve" smooth="yes"/>
      <point x="27.5186" y="-24.3887"/>
      <point x="14.5244" y="-37.418"/>
      <point x="-1.4043" y="-37.418" type="curve" smooth="yes"/>
      <point x="-5.56445" y="-37.418"/>
      <point x="-14.2666" y="-36.4209"/>
      <point x="-21.6523" y="-29.0352" type="curve" smooth="yes"/>
      <point x="-23.6201" y="-27.0664"/>
      <point x="-25.2939" y="-24.8311"/>
      <point x="-26.6182" y="-22.373" type="curve" smooth="yes"/>
      <point x="-27.2139" y="-21.2666"/>
      <point x="-27.5117" y="-20.042"/>
      <point x="-27.5117" y="-18.8164" type="curve" smooth="yes"/>
      <point x="-27.5117" y="-14.6729"/>
      <point x="-24.1572" y="-11.3174"/>
      <point x="-20.0137" y="-11.3174" type="curve" smooth="yes"/>
      <point x="-19.207" y="-11.3174"/>
      <point x="-15.4219" y="-11.5225"/>
      <point x="-13.4092" y="-15.2588" type="curve" smooth="yes"/>
      <point x="-12.6729" y="-16.627"/>
      <point x="-11.1123" y="-18.9092"/>
      <point x="-8.29199" y="-20.5566" type="curve" smooth="yes"/>
      <point x="-6.22363" y="-21.7646"/>
      <point x="-3.76953" y="-22.4209"/>
      <point x="-1.3916" y="-22.4209" type="curve" smooth="yes"/>
      <point x="0.224609" y="-22.4209"/>
      <point x="4.75488" y="-21.9707"/>
      <point x="8.36719" y="-18.3584" type="curve" smooth="yes"/>
      <point x="10.7432" y="-15.9824"/>
      <point x="12.5205" y="-12.2568"/>
      <point x="12.5205" y="-8.33984" type="curve" smooth="yes"/>
      <point x="12.5205" y="-0.473633"/>
      <point x="6.17383" y="6.28027"/>
      <point x="-2.17188" y="6.28027" type="curve" smooth="yes"/>
      <point x="-4.04102" y="6.28027"/>
      <point x="-9.79102" y="5.82129"/>
      <point x="-13.8594" y="0.522461" type="curve" smooth="yes"/>
      <point x="-14.5" y="-0.3125"/>
      <point x="-16.4482" y="-2.41504"/>
      <point x="-19.8135" y="-2.41504" type="curve" smooth="yes"/>
      <point x="-23.957" y="-2.41504"/>
      <point x="-27.3125" y="0.939453"/>
      <point x="-27.3125" y="5.08398" type="curve" smooth="yes"/>
      <point x="-27.3125" y="43.8838" type="line" smooth="yes"/>
      <point x="-27.3125" y="48.0273"/>
      <point x="-23.957" y="51.3818"/>
      <point x="-19.8135" y="51.3818" type="curve" smooth="yes"/>
      <point x="18.1865" y="51.3818" type="line" smooth="yes"/>
      <point x="22.3301" y="51.3818"/>
      <point x="25.6846" y="48.0273"/>
      <point x="25.6846" y="43.8838" type="curve" smooth="yes"/>
      <point x="25.6846" y="39.7402"/>
      <point x="22.3301" y="36.3848"/>
      <point x="18.1865" y="36.3848" type="curve" smooth="yes"/>
      <point x="-12.3154" y="36.3848" type="line"/>
      <point x="-12.3154" y="19.5039" type="line"/>
      <point x="-10.2988" y="20.2363"/>
      <point x="-6.74414" y="21.2861"/>
    </contour>
  </outline>
</glyph>
<glyph name="__combstroke6" format="2">
  <advance width="0"/>
  <anchor x="-0.0107422" y="10.1514" name="_stroke6"/>
  <outline>
    <contour>
      <point x="44.222702" y="-4.10059" type="curve"/>
      <point x="44.2227" y="-28.38393"/>
      <point x="24.205896" y="-48.291"/>
      <point x="-0.0517578" y="-48.291" type="curve"/>
      <point x="-25.030752" y="-48.291"/>
      <point x="-44.2471" y="-27.734667"/>
      <point x="-44.2471" y="-3.07715" type="curve"/>
      <point x="-44.2471" y="7.8146477"/>
      <point x="-40.604176" y="17.720783"/>
      <point x="-35.840153" y="27.339869" type="curve"/>
      <point x="-28.762867" y="41.62566"/>
      <point x="-20.220573" y="54.503674"/>
      <point x="-8.22255" y="65.170944" type="curve"/>
      <point x="-4.1149154" y="68.820015"/>
      <point x="1.2352065" y="70.8496"/>
      <point x="6.72266" y="70.8496" type="curve"/>
      <point x="19.091091" y="70.8496"/>
      <point x="29.221699" y="60.72037"/>
      <point x="29.221699" y="48.3516" type="curve"/>
      <point x="29.221699" y="42.759773"/>
      <point x="27.112894" y="37.352062"/>
      <point x="23.387047" y="33.235428" type="curve"/>
      <point x="35.85675" y="25.433641"/>
      <point x="44.222702" y="11.606451"/>
    </contour>
  </outline>
</glyph>
<glyph name="__combstroke6" format="2">
  <advance width="0"/>
  <anchor x="-0.0107422" y="10.1514" name="_stroke6"/>
  <outline>
    <contour>
      <point x="-14.0967" y="-1.15039" type="curve" smooth="yes"/>
      <point x="-14.2412" y="-1.73535"/>
      <point x="-14.2451" y="-2.34863"/>
      <point x="-14.2451" y="-3.11133" type="curve" smooth="yes"/>
      <point x="-14.2451" y="-5.21484"/>
      <point x="-13.7861" y="-11.0723"/>
      <point x="-9.00684" y="-15.0674" type="curve" smooth="yes"/>
      <point x="-6.56152" y="-17.1104"/>
      <point x="-3.21191" y="-18.292"/>
      <point x="0.0107422" y="-18.292" type="curve" smooth="yes"/>
      <point x="1.13379" y="-18.292"/>
      <point x="6.37793" y="-18.0508"/>
      <point x="10.4043" y="-13.7412" type="curve" smooth="yes"/>
      <point x="12.79" y="-11.1875"/>
      <point x="14.2256" y="-7.53516"/>
      <point x="14.2256" y="-4.08398" type="curve" smooth="yes"/>
      <point x="14.2256" y="-3.01367"/>
      <point x="14.002" y="2.0293"/>
      <point x="9.96582" y="5.94238" type="curve" smooth="yes"/>
      <point x="7.39648" y="8.43359"/>
      <point x="3.61133" y="9.9541"/>
      <point x="0.0117188" y="9.9541" type="curve" smooth="yes"/>
      <point x="-0.773438" y="9.9541"/>
      <point x="-6.0127" y="9.91699"/>
      <point x="-10.207" y="5.72168" type="curve" smooth="yes"/>
      <point x="-12.0713" y="3.8584"/>
      <point x="-13.4717" y="1.38867"/>
    </contour>
    <contour>
      <point x="29.2227" y="-4.10059" type="curve" smooth="yes"/>
      <point x="29.2227" y="-20.2275"/>
      <point x="16.0098" y="-33.291"/>
      <point x="-0.0517578" y="-33.291" type="curve" smooth="yes"/>
      <point x="-15.8721" y="-33.291"/>
      <point x="-29.2471" y="-20.6279"/>
      <point x="-29.2471" y="-3.07715" type="curve" smooth="yes"/>
      <point x="-29.2471" y="6.37207"/>
      <point x="-25.4648" y="14.4912"/>
      <point x="-22.3984" y="20.6826" type="curve" smooth="yes"/>
      <point x="-16.9668" y="31.6465"/>
      <point x="-10.3809" y="43.1807"/>
      <point x="1.74414" y="53.9609" type="curve" smooth="yes"/>
      <point x="3.16113" y="55.2197"/>
      <point x="4.94141" y="55.8496"/>
      <point x="6.72266" y="55.8496" type="curve" smooth="yes"/>
      <point x="10.8672" y="55.8496"/>
      <point x="14.2217" y="52.4951"/>
      <point x="14.2217" y="48.3516" type="curve" smooth="yes"/>
      <point x="14.2217" y="47.2461"/>
      <point x="13.9473" y="44.7383"/>
      <point x="11.7021" y="42.7422" type="curve" smooth="yes"/>
      <point x="5.68457" y="37.3926"/>
      <point x="0.988281" y="31.5605"/>
      <point x="-3.12109" y="24.7822" type="curve"/>
      <point x="-2.00391" y="24.9023"/>
      <point x="-0.951172" y="24.9512"/>
      <point x="0.0244141" y="24.9512" type="curve" smooth="yes"/>
      <point x="16.1768" y="24.9512"/>
      <point x="29.2227" y="11.8965"/>
    </contour>
  </outline>
</glyph>
<glyph name="__combstroke7" format="2">
  <advance width="0"/>
  <anchor x="-11.25" y="-3.59961" name="_stroke7"/>
  <outline>
    <contour>
      <point x="-4.017647" y="-50.57728" type="curve"/>
      <point x="-7.5719376" y="-58.753098"/>
      <point x="-15.734469" y="-64.0986"/>
      <point x="-24.6504" y="-64.0986" type="curve"/>
      <point x="-37.019142" y="-64.0986"/>
      <point x="-47.1484" y="-53.96802"/>
      <point x="-47.1484" y="-41.5996" type="curve"/>
      <point x="-47.1484" y="-38.518124"/>
      <point x="-46.511692" y="-35.447807"/>
      <point x="-45.282585" y="-32.62185" type="curve"/>
      <point x="-26.269962" y="11.101601" type="line"/>
      <point x="-33.0498" y="11.101601" type="curve"/>
      <point x="-45.417816" y="11.101601"/>
      <point x="-55.5488" y="21.23125"/>
      <point x="-55.5488" y="33.5996" type="curve"/>
      <point x="-55.5488" y="45.96826"/>
      <point x="-45.41845" y="56.0986"/>
      <point x="-33.0498" y="56.0986" type="curve"/>
      <point x="8.0498" y="56.0986" type="curve"/>
      <point x="20.41845" y="56.0986"/>
      <point x="30.5488" y="45.96826"/>
      <point x="30.548801" y="33.5996" type="curve"/>
      <point x="30.548801" y="30.51838"/>
      <point x="29.912136" y="27.448387"/>
      <point x="28.682554" y="24.622923" type="curve"/>
      <point x="28.679947" y="24.616932" type="line"/>
      <point x="28.677341" y="24.610939" type="line"/>
    </contour>
  </outline>
</glyph>
<glyph name="__combstroke7" format="2">
  <advance width="0"/>
  <anchor x="-11.25" y="-3.59961" name="_stroke7"/>
  <outline>
    <contour>
      <point x="-24.6504" y="-49.0986" type="curve" smooth="yes"/>
      <point x="-28.7939" y="-49.0986"/>
      <point x="-32.1484" y="-45.7441"/>
      <point x="-32.1484" y="-41.5996" type="curve" smooth="yes"/>
      <point x="-32.1484" y="-40.5781"/>
      <point x="-31.9414" y="-39.5566"/>
      <point x="-31.5273" y="-38.6045" type="curve" smooth="yes"/>
      <point x="-3.39062" y="26.1016" type="line"/>
      <point x="-33.0498" y="26.1016" type="line" smooth="yes"/>
      <point x="-37.1934" y="26.1016"/>
      <point x="-40.5488" y="29.4561"/>
      <point x="-40.5488" y="33.5996" type="curve" smooth="yes"/>
      <point x="-40.5488" y="37.7441"/>
      <point x="-37.1934" y="41.0986"/>
      <point x="-33.0498" y="41.0986" type="curve" smooth="yes"/>
      <point x="8.0498" y="41.0986" type="line" smooth="yes"/>
      <point x="12.1934" y="41.0986"/>
      <point x="15.5488" y="37.7441"/>
      <point x="15.5488" y="33.5996" type="curve" smooth="yes"/>
      <point x="15.5488" y="32.5781"/>
      <point x="15.3418" y="31.5566"/>
      <point x="14.9268" y="30.6045" type="curve" smooth="yes"/>
      <point x="-17.7734" y="-44.5957" type="line" smooth="yes"/>
      <point x="-18.9307" y="-47.2578"/>
      <point x="-21.585" y="-49.0986"/>
    </contour>
  </outline>
</glyph>
<glyph name="__combstroke8" format="2">
  <advance width="0"/>
  <anchor x="0" y="8.90918" name="_stroke8"/>
  <outline>
    <contour>
      <point x="-2.29883" y="68.6104" type="curve"/>
      <point x="2.0500329" y="68.6104"/>
      <point x="6.3633404" y="67.8911"/>
      <point x="10.455445" y="66.514404" type="curve"/>
      <point x="13.920724" y="68.58298"/>
      <point x="17.917622" y="69.708"/>
      <point x="22.0039" y="69.708" type="curve"/>
      <point x="34.37296" y="69.708"/>
      <point x="44.5029" y="59.578056"/>
      <point x="44.5029" y="47.209" type="curve"/>
      <point x="44.5029" y="41.61314"/>
      <point x="42.392097" y="36.165398"/>
      <point x="38.616413" y="32.03404" type="curve"/>
      <point x="26.449238" y="18.72191" type="line"/>
      <point x="28.426046" y="16.984507"/>
      <point x="30.24219" y="15.055775"/>
      <point x="31.849508" y="12.877302" type="curve"/>
      <point x="36.594864" y="6.447319"/>
      <point x="39.1074" y="-1.4265184"/>
      <point x="39.1074" y="-9.40918" type="curve"/>
      <point x="39.1074" y="-32.014668"/>
      <point x="20.037716" y="-49.9092"/>
      <point x="-2.28809" y="-49.9092" type="curve"/>
      <point x="-25.254879" y="-49.9092"/>
      <point x="-44.5039" y="-31.194635"/>
      <point x="-44.5039" y="-8.10059" type="curve"/>
      <point x="-44.5039" y="0.015942037"/>
      <point x="-42.139194" y="7.0897436"/>
      <point x="-38.12753" y="13.478202" type="curve"/>
      <point x="-40.458332" y="18.512798"/>
      <point x="-41.715797" y="24.032393"/>
      <point x="-41.715797" y="29.6826" type="curve"/>
      <point x="-41.715797" y="51.25624"/>
      <point x="-23.719217" y="68.6104"/>
    </contour>
  </outline>
</glyph>
<glyph name="__combstroke8" format="2">
  <advance width="0"/>
  <anchor x="-0" y="8.90918" name="_stroke8"/>
  <outline>
    <contour>
      <point x="2.73828" y="37.2471" type="line"/>
      <point x="1.89551" y="37.7383"/>
      <point x="0.0615234" y="38.6133"/>
      <point x="-2.31055" y="38.6133" type="curve" smooth="yes"/>
      <point x="-3.13477" y="38.6133"/>
      <point x="-6.4873" y="38.4453"/>
      <point x="-9.07617" y="35.8564" type="curve" smooth="yes"/>
      <point x="-9.67383" y="35.2588"/>
      <point x="-11.709" y="32.9883"/>
      <point x="-11.709" y="29.7744" type="curve" smooth="yes"/>
      <point x="-11.709" y="28.6211"/>
      <point x="-11.4521" y="26.1143"/>
      <point x="-9.48242" y="23.877" type="curve"/>
    </contour>
    <contour>
      <point x="22.0039" y="54.708" type="curve" smooth="yes"/>
      <point x="26.1484" y="54.708"/>
      <point x="29.5029" y="51.3535"/>
      <point x="29.5029" y="47.209" type="curve" smooth="yes"/>
      <point x="29.5029" y="45.3955"/>
      <point x="28.8496" y="43.582"/>
      <point x="27.5439" y="42.1533" type="curve" smooth="yes"/>
      <point x="3.34277" y="15.6748" type="line"/>
      <point x="9.65137" y="12.165" type="line" smooth="yes"/>
      <point x="12.2666" y="10.709"/>
      <point x="16.627" y="8.24414"/>
      <point x="19.7793" y="3.97168" type="curve" smooth="yes"/>
      <point x="22.6924" y="0.0244141"/>
      <point x="24.1074" y="-4.69629"/>
      <point x="24.1074" y="-9.40918" type="curve" smooth="yes"/>
      <point x="24.1074" y="-23.2412"/>
      <point x="12.4551" y="-34.9092"/>
      <point x="-2.28809" y="-34.9092" type="curve" smooth="yes"/>
      <point x="-17.3828" y="-34.9092"/>
      <point x="-29.5039" y="-22.7021"/>
      <point x="-29.5039" y="-8.10059" type="curve" smooth="yes"/>
      <point x="-29.5039" y="1.97168"/>
      <point x="-23.8926" y="8.11133"/>
      <point x="-20.7354" y="11.5654" type="curve" smooth="yes"/>
      <point x="-19.6279" y="12.7773" type="line"/>
      <point x="-22.291" y="15.4473"/>
      <point x="-26.7158" y="21.1631"/>
      <point x="-26.7158" y="29.6826" type="curve" smooth="yes"/>
      <point x="-26.7158" y="42.6924"/>
      <point x="-15.9121" y="53.6104"/>
      <point x="-2.29883" y="53.6104" type="curve" smooth="yes"/>
      <point x="1.11426" y="53.6104"/>
      <point x="7.17969" y="52.8672"/>
      <point x="12.9512" y="48.4209" type="curve"/>
      <point x="16.5801" y="52.3916"/>
      <point x="16.5801" y="52.3916"/>
      <point x="16.7012" y="52.5127" type="curve" smooth="yes"/>
      <point x="18.1641" y="53.9766"/>
      <point x="20.084" y="54.708"/>
    </contour>
    <contour>
      <point x="-14.5068" y="-8.11523" type="curve" smooth="yes"/>
      <point x="-14.5068" y="-8.89062"/>
      <point x="-14.3379" y="-13.3555"/>
      <point x="-10.583" y="-16.7344" type="curve" smooth="yes"/>
      <point x="-8.37012" y="-18.7256"/>
      <point x="-5.21875" y="-19.9111"/>
      <point x="-2.23633" y="-19.9111" type="curve" smooth="yes"/>
      <point x="-1.34766" y="-19.9111"/>
      <point x="2.85059" y="-19.7344"/>
      <point x="6.0459" y="-16.54" type="curve" smooth="yes"/>
      <point x="6.50488" y="-16.0811"/>
      <point x="9.11035" y="-13.3047"/>
      <point x="9.11035" y="-9.43066" type="curve" smooth="yes"/>
      <point x="9.11035" y="-8.35547"/>
      <point x="8.87598" y="-5.99805"/>
      <point x="7.02441" y="-4.14648" type="curve" smooth="yes"/>
      <point x="6.06738" y="-3.19043"/>
      <point x="4.43555" y="-2.10254"/>
      <point x="2.35742" y="-0.946289" type="curve" smooth="yes"/>
      <point x="-7.05957" y="4.29395" type="line"/>
      <point x="-11.3438" y="-0.393555"/>
      <point x="-12.582" y="-1.74805"/>
      <point x="-13.4932" y="-3.63867" type="curve" smooth="yes"/>
      <point x="-14.1543" y="-5.00977"/>
      <point x="-14.5068" y="-6.57812"/>
    </contour>
  </outline>
</glyph>
<glyph name="__combstroke9" format="2">
  <advance width="0"/>
  <anchor x="0" y="9.25195" name="_stroke9"/>
  <outline>
    <contour>
      <point x="42.0928" y="-26.748" type="line"/>
      <point x="42.0928" y="-39.116634"/>
      <point x="31.962482" y="-49.2471"/>
      <point x="19.5938" y="-49.2471" type="curve"/>
      <point x="7.2253985" y="-49.2471"/>
      <point x="-2.9042997" y="-39.116062"/>
      <point x="-2.9042997" y="-26.748" type="curve"/>
      <point x="-2.9042997" y="-14.194986" type="line"/>
      <point x="-24.692287" y="-12.691192"/>
      <point x="-42.0928" y="5.5940647"/>
      <point x="-42.0928" y="27.7559" type="curve"/>
      <point x="-42.0928" y="50.89413"/>
      <point x="-23.125149" y="69.806595"/>
      <point x="0" y="69.806595" type="curve"/>
      <point x="23.125149" y="69.806595"/>
      <point x="42.0928" y="50.89413"/>
      <point x="42.0928" y="27.7559" type="curve"/>
    </contour>
    <contour>
      <point x="0" y="24.8096" type="curve"/>
      <point x="1.5972" y="24.8096"/>
      <point x="2.9042997" y="26.158699"/>
      <point x="2.9042997" y="27.7559" type="curve"/>
      <point x="2.9042997" y="29.3531"/>
      <point x="1.5972" y="30.702099"/>
      <point x="0" y="30.702099" type="curve"/>
      <point x="-1.5972" y="30.702099"/>
      <point x="-2.9042997" y="29.3531"/>
      <point x="-2.9042997" y="27.7559" type="curve"/>
      <point x="-2.9042997" y="26.158699"/>
      <point x="-1.5972" y="24.8096"/>
    </contour>
  </outline>
</glyph>
<glyph name="__combstroke9" format="2">
  <advance width="0"/>
  <anchor x="0" y="9.25195" name="_stroke9"/>
  <outline>
    <contour>
      <point x="-12.0957" y="27.7559" type="curve" smooth="yes"/>
      <point x="-12.0957" y="21.0762"/>
      <point x="-6.65527" y="15.7021"/>
      <point x="0" y="15.7021" type="curve" smooth="yes"/>
      <point x="6.65723" y="15.7021"/>
      <point x="12.0957" y="21.0869"/>
      <point x="12.0957" y="27.7559" type="curve" smooth="yes"/>
      <point x="12.0957" y="34.4355"/>
      <point x="6.65527" y="39.8096"/>
      <point x="0" y="39.8096" type="curve" smooth="yes"/>
      <point x="-6.65527" y="39.8096"/>
      <point x="-12.0957" y="34.4355"/>
    </contour>
    <contour>
      <point x="27.0928" y="-26.748" type="line" smooth="yes"/>
      <point x="27.0928" y="-30.8916"/>
      <point x="23.7383" y="-34.2471"/>
      <point x="19.5938" y="-34.2471" type="curve" smooth="yes"/>
      <point x="15.4502" y="-34.2471"/>
      <point x="12.0957" y="-30.8916"/>
      <point x="12.0957" y="-26.748" type="curve" smooth="yes"/>
      <point x="12.0957" y="3.54395" type="line"/>
      <point x="8.45508" y="1.72754"/>
      <point x="4.34668" y="0.705078"/>
      <point x="0" y="0.705078" type="curve" smooth="yes"/>
      <point x="-14.958" y="0.705078"/>
      <point x="-27.0928" y="12.8027"/>
      <point x="-27.0928" y="27.7559" type="curve" smooth="yes"/>
      <point x="-27.0928" y="42.709"/>
      <point x="-14.958" y="54.8066"/>
      <point x="0" y="54.8066" type="curve" smooth="yes"/>
      <point x="14.958" y="54.8066"/>
      <point x="27.0928" y="42.709"/>
      <point x="27.0928" y="27.7559" type="curve" smooth="yes"/>
    </contour>
  </outline>
</glyph>
